<?xml version="1.0" standalone="no"?><!DOCTYPE svg PUBLIC "-//W3C//DTD SVG 1.1//EN" "http://www.w3.org/Graphics/SVG/1.1/DTD/svg11.dtd"><svg t="1556160794221" class="icon" style="" viewBox="0 0 1024 1024" version="1.1" xmlns="http://www.w3.org/2000/svg" p-id="731" xmlns:xlink="http://www.w3.org/1999/xlink" width="200" height="200"><defs><style type="text/css"></style></defs><path d="M718.04458667 451.57944889L675.97411556 451.57944889 675.97411556 504.37233778 624.25528889 504.37233778 624.25528889 546.44280889 675.97411556 546.44280889 675.97411556 599.23569778 718.04458667 599.23569778 718.04458667 546.44280889 771.92974222 546.44280889 771.92974222 504.37233778 718.04458667 504.37233778Z" p-id="732"></path><path d="M198.59896889 808.11349333m-82.68458667 0a5.16778667 5.16778667 0 1 0 165.36917334 0 5.16778667 5.16778667 0 1 0-165.36917334 0Z" p-id="733"></path><path d="M780.77710222 808.11349333m-82.68458666 0a5.16778667 5.16778667 0 1 0 165.36917333 0 5.16778667 5.16778667 0 1 0-165.36917333 0Z" p-id="734"></path><path d="M285.05187555 174.67164445c-4.58752-2.07530667-9.97603555-0.03640889-12.05134221 4.53290666-2.07530667 4.56931555-0.03640889 9.97603555 4.53290666 12.03313778l76.60430222 34.73408c1.21969778 0.54613333 2.49400889 0.8192 3.75011556 0.8192 3.45884445 0 6.77205333-1.98428445 8.30122667-5.35210667 2.07530667-4.56931555 0.05461333-9.97603555-4.53290667-12.03313777L285.05187555 174.67164445z" p-id="735"></path><path d="M410.91740445 195.75239111c2.20273778 0 4.40547555-0.78279111 6.15310222-2.40298666 3.71370667-3.40423111 3.95036445-9.13863111 0.56433778-12.85233778l-56.83427556-62.00433778c-3.38602667-3.69550222-9.15683555-3.98677333-12.87054222-0.54613334-3.71370667 3.40423111-3.95036445 9.13863111-0.56433778 12.85233778l56.83427557 62.00433778C406.00220445 194.75114667 408.45980445 195.75239111 410.91740445 195.75239111z" p-id="736"></path><path d="M516.2847289 117.92839111c-3.73191111-3.42243555-9.46631111-3.14936889-12.87054222 0.54613334l-56.81607113 62.00433777c-3.38602667 3.71370667-3.14936889 9.46631111 0.56433778 12.85233778 1.74762667 1.62019555 3.95036445 2.40298667 6.15310223 2.40298667 2.4576 0 4.9152-1.00124445 6.71743999-2.94912l56.81607112-62.00433778C520.25329779 127.06702222 519.99843555 121.33262222 516.2847289 117.92839111z" p-id="737"></path><path d="M489.68803556 226.79096889c1.25610667 0 2.53041778-0.27306667 3.75011555-0.8192l76.60430222-34.73408c4.58752-2.05710222 6.60821333-7.46382222 4.53290667-12.03313778-2.07530667-4.56931555-7.44561778-6.60821333-12.05134221-4.53290666l-76.60430224 34.73408c-4.58752 2.05710222-6.60821333 7.46382222-4.53290665 12.03313777C482.93418667 224.80668445 486.22919112 226.79096889 489.68803556 226.79096889z" p-id="738"></path><path d="M907.26158222 269.77166222L480.09429333 269.77166222c-8.33763555-24.92188445-31.60291555-42.99889778-59.34648888-42.99889777-27.72536889 0-51.00885333 18.07701333-59.34648889 42.99889777 0 0-13.67153778 0-30.54705778 0-16.87552 0-30.54705778 23.70218667-30.54705778 52.92032l0 52.93852445c0 0-15.92888889 0-35.57148445 0-19.64259555 0-56.88888889 24.64881778-83.21251554 55.05024l-96.51996446 111.50222222c-26.32362667 30.41962667-47.65923555 87.6544-47.65923555 127.86801778l0 32.95004444c0 40.21361778 15.09148445 72.81777778 33.71463111 72.81777778l33.71463112 0c12.63388445-40.23182222 50.24426667-69.43175111 94.6631111-69.43175111 44.41884445 0 82.01102222 29.19992889 94.66311113 69.43175111l6.22591999 0 49.62531555 0 337.00067555 0c12.65208889-40.23182222 50.24426667-69.43175111 94.68131557-69.43175111 44.41884445 0 82.01102222 29.19992889 94.6631111 69.43175111 0 0 23.22887111 0 51.90087112 0 28.672 0 51.90087111-32.60416 51.90087111-72.81777778l0-360.448C980.07936 302.37582222 947.4752 269.77166222 907.26158222 269.77166222zM303.12888889 527.92888889c0 20.09770667-16.31118222 36.40888889-36.40888889 36.40888889l-81.92 0c-20.09770667 0-25.19495111-11.81468445-11.34136889-26.41464889l56.83427556-59.92903111c13.83537778-14.59996445 35.75352889-26.41464889 48.95175111-26.41464889s23.88423111 16.31118222 23.88423111 36.40888889L303.12888889 527.92888889zM826.37923556 544.33109333l0.05461334 0-126.41166223 124.00867556-130.2528-124.00867556 0.03640889 0c-19.82464-16.85731555-32.47672889-41.94304-32.47672889-70.01429333 0-50.73578667 41.12384-91.85962667 91.85962666-91.85962667 27.47050667 0 52.04650667 12.12416 68.88561779 31.23882667 16.83911111-19.11466667 41.41511111-31.23882667 68.88561778-31.23882667 50.75399111 0 91.85962667 41.12384 91.85962666 91.85962667C858.83776001 502.40625778 846.20387555 527.49198222 826.37923556 544.33109333z" p-id="739"></path></svg>