<svg id="图层_1" data-name="图层 1" xmlns="http://www.w3.org/2000/svg" xmlns:xlink="http://www.w3.org/1999/xlink" viewBox="0 0 113.82 200.21"><defs><style>.cls-1{fill:none;}.cls-2{fill:#d8e2e7;}.cls-3{fill:#222b32;}.cls-4{fill:#fff;}.cls-5{fill:#bec9d2;}.cls-6{clip-path:url(#clip-path);}.cls-7{fill:#525d65;}.cls-8{fill:#d32f2f;}.cls-9{fill:#e4edf1;}.cls-10{fill:#3b464e;}.cls-11{fill:#e25050;}.cls-12{fill:#009c4d;}</style><clipPath id="clip-path" transform="translate(-44 0.11)"><path class="cls-1" d="M136.5,37.49c-11.13-9.26-25.39-9.88-32-9.59q-3.61.15-7.24,0c-6.57-.29-20.84.33-32,9.59a8.47,8.47,0,0,0-2.55,8.83L69.08,68s10.08-4.55,29-3.52a52.12,52.12,0,0,0,5.59,0c19-1,29,3.52,29,3.52l6.31-21.69A8.49,8.49,0,0,0,136.5,37.49Z"/></clipPath></defs><title>car_green</title><path class="cls-2" d="M148.37,26.8V188.46a9.53,9.53,0,0,1-9.55,9.54H63a9.54,9.54,0,0,1-9.54-9.54V26.8a27.34,27.34,0,0,1,3.92-12.16A30.07,30.07,0,0,1,70.93,3.31,39.67,39.67,0,0,1,87.23-.11H114.6a39.71,39.71,0,0,1,16.3,3.42A30.75,30.75,0,0,1,143.3,13,27,27,0,0,1,148.37,26.8Z" transform="translate(-44 0.11)"/><path class="cls-3" d="M56.39,51.3v34l7.89,1.63V74.22a27.47,27.47,0,0,0-2.63-11.63Z" transform="translate(-44 0.11)"/><path class="cls-3" d="M145.43,51.3v34l-7.89,1.63V74.22a27.47,27.47,0,0,1,2.63-11.63Z" transform="translate(-44 0.11)"/><path class="cls-4" d="M59.83,17.89a2.11,2.11,0,0,1,0-2.66c1.29-1.62,2.34-3.6,3.86-5.12A30.62,30.62,0,0,1,71,4.71a1.53,1.53,0,0,1,2,2c-.16.51-.3,1-.41,1.41A11.78,11.78,0,0,1,70,13.5C68.6,15.09,62,20.22,59.83,17.89Z" transform="translate(-44 0.11)"/><path class="cls-4" d="M142,17.89a2.1,2.1,0,0,0,0-2.66,54.46,54.46,0,0,0-3.86-5.12,30.42,30.42,0,0,0-7.34-5.4,1.53,1.53,0,0,0-2,2c.17.51.3,1,.42,1.41a11.78,11.78,0,0,0,2.6,5.37C133.23,15.09,139.87,20.22,142,17.89Z" transform="translate(-44 0.11)"/><path class="cls-5" d="M55,62.59c-.63-1.2-2.25-1.52-4.17-.38a15.33,15.33,0,0,0-5.15,5.35c-.38.64-2.08,3.26-1.64,4.45.38,1,2.85-.08,3.29-.21a12.73,12.73,0,0,0,7.24-5.54A4,4,0,0,0,55,62.59Z" transform="translate(-44 0.11)"/><path class="cls-5" d="M146.8,62.59c.62-1.2,2.24-1.52,4.17-.38a15.31,15.31,0,0,1,5.14,5.35c.39.64,2.09,3.26,1.64,4.45-.38,1-2.84-.08-3.29-.21a12.76,12.76,0,0,1-7.24-5.54A4,4,0,0,1,146.8,62.59Z" transform="translate(-44 0.11)"/><path class="cls-3" d="M136.5,37.49c-11.13-9.26-25.39-9.88-32-9.59q-3.61.15-7.24,0c-6.57-.29-20.84.33-32,9.59a8.47,8.47,0,0,0-2.55,8.83L69.08,68s10.08-4.55,29-3.52a52.12,52.12,0,0,0,5.59,0c19-1,29,3.52,29,3.52l6.31-21.69A8.49,8.49,0,0,0,136.5,37.49Z" transform="translate(-44 0.11)"/><g class="cls-6"><polygon class="cls-7" points="27.05 70.13 22.39 70.13 44.84 25.95 49.5 25.95 27.05 70.13"/><polygon class="cls-7" points="35.24 70.13 30.58 70.13 53.04 25.95 57.7 25.95 35.24 70.13"/><polygon class="cls-7" points="60.79 70.13 56.13 70.13 78.58 25.95 83.24 25.95 60.79 70.13"/><polygon class="cls-7" points="68.98 70.13 64.32 70.13 86.78 25.95 91.44 25.95 68.98 70.13"/></g><path class="cls-8" d="M57.38,14.64V46.52H53.46V26.8A27.34,27.34,0,0,1,57.38,14.64Z" transform="translate(-44 0.11)"/><path class="cls-8" d="M57.38,94v102.2a9.53,9.53,0,0,1-3.92-7.71V94Z" transform="translate(-44 0.11)"/><path class="cls-8" d="M148.37,26.8V46.52H143.3V13A27,27,0,0,1,148.37,26.8Z" transform="translate(-44 0.11)"/><path class="cls-8" d="M148.37,94v94.49a9.56,9.56,0,0,1-5.07,8.43V94Z" transform="translate(-44 0.11)"/><rect class="cls-9" x="22.82" y="70.73" width="68.18" height="119.42" rx="11.94"/><path class="cls-8" d="M32.89,83.61H44.18a0,0,0,0,1,0,0V94.47a0,0,0,0,1,0,0H32.89A2.48,2.48,0,0,1,30.41,92v-5.9A2.48,2.48,0,0,1,32.89,83.61Z"/><rect class="cls-10" x="88.18" y="83.5" width="25.47" height="10.86" transform="translate(157.82 177.96) rotate(180)"/><rect class="cls-3" x="88.18" y="85.75" width="25.47" height="6.36" transform="translate(157.82 177.96) rotate(180)"/><rect class="cls-11" x="33.26" y="85.86" width="8.06" height="6.36"/><path class="cls-8" d="M69.65,83.61H80.94a2.48,2.48,0,0,1,2.48,2.48V92a2.48,2.48,0,0,1-2.48,2.48H69.65a0,0,0,0,1,0,0V83.61A0,0,0,0,1,69.65,83.61Z"/><rect class="cls-11" x="72.5" y="85.86" width="8.06" height="6.36"/><rect class="cls-8" x="19.94" y="198.12" width="9.52" height="2.09"/><rect class="cls-8" x="84.36" y="198.12" width="9.52" height="2.09"/><polygon class="cls-12" points="63 131.11 63 114.11 51 114.11 51 131.11 35 131.11 35 143.11 51 143.11 51 159.11 63 159.11 63 143.11 80 143.11 80 131.11 63 131.11"/></svg>