<?xml version="1.0" standalone="no"?><!DOCTYPE svg PUBLIC "-//W3C//DTD SVG 1.1//EN" "http://www.w3.org/Graphics/SVG/1.1/DTD/svg11.dtd"><svg t="1557291974438" class="icon" style="" viewBox="0 0 1024 1024" version="1.1" xmlns="http://www.w3.org/2000/svg" p-id="12129" xmlns:xlink="http://www.w3.org/1999/xlink" width="200" height="200"><defs><style type="text/css"></style></defs><path d="M511.95669 1024c-33.791481 0-67.546391-13.165512-93.255711-39.313682l-217.157808-221.253745c-171.188228-174.443035-171.188228-458.232963 0-632.602856a433.840195 433.840195 0 0 1 620.900179 0c171.188228 174.406464 171.188228 458.196392 0 632.602856l-217.304091 221.253745A130.265428 130.265428 0 0 1 511.993261 1024z m0-914.271674c-84.36899 0-168.591697 32.804068-232.810139 98.412203-128.363743 131.216271-128.363743 344.716992 0 475.933263L468.693354 877.716532a60.34193 60.34193 0 0 0 86.599813 0l189.546803-193.752453c128.363743-131.1797 128.363743-344.716992 0-475.933262A325.078436 325.078436 0 0 0 511.95669 109.728326z" p-id="12130" fill="#cccccc"></path><path d="M511.993261 621.720464a182.854335 182.854335 0 1 1 0-365.70867 182.854335 182.854335 0 0 1 0 365.70867z m0-109.712601a73.141734 73.141734 0 1 0 0-146.283468 73.141734 73.141734 0 0 0 0 146.283468z" p-id="12131" fill="#cccccc"></path></svg>