<svg id="图层_1" data-name="图层 1" xmlns="http://www.w3.org/2000/svg" viewBox="0 0 166.36 197.6"><defs><style>.cls-1{fill:#fff;}</style></defs><title>Location</title><path class="cls-1" d="M172.2,127l-56.22,65a19.57,19.57,0,0,1-29.6,0L29.31,126.13a4.22,4.22,0,0,1-.66-1,83.18,83.18,0,1,1,144.84.39A4.91,4.91,0,0,1,172.2,127Zm-6.73-7.19a73.39,73.39,0,1,0-128.42.29l56.72,65.54a9.79,9.79,0,0,0,14.81,0Zm-64.29-1.18A34.25,34.25,0,1,1,135.43,84.4a34.24,34.24,0,0,1-34.25,34.25Zm0-9.79A24.46,24.46,0,1,0,76.72,84.4a24.46,24.46,0,0,0,24.46,24.46Zm0,0" transform="translate(-18 -1.22)"/></svg>