<?xml version="1.0" standalone="no"?><!DOCTYPE svg PUBLIC "-//W3C//DTD SVG 1.1//EN" "http://www.w3.org/Graphics/SVG/1.1/DTD/svg11.dtd"><svg t="1557452771155" class="icon" style="" viewBox="0 0 1024 1024" version="1.1" xmlns="http://www.w3.org/2000/svg" p-id="971" xmlns:xlink="http://www.w3.org/1999/xlink" width="200" height="200"><defs><style type="text/css"></style></defs><path d="M545.36 784.6592c19.5936 19.5936 19.5936 51.3792 0 70.9728-19.5936 19.6032-51.3696 19.6032-70.9728 0l-308.16-308.1504c-9.792-9.8016-14.688-22.6368-14.688-35.4816s4.9056-25.6896 14.688-35.4816l308.16-308.1504c19.6032-19.6032 51.3792-19.6032 70.9728 0 19.5936 19.5936 19.5936 51.3696 0 70.9728L272.7008 512 545.36 784.6592zM585.0944 512l272.6592-272.6592c19.5936-19.6032 19.5936-51.3792 0-70.9728-19.5936-19.6032-51.3696-19.6032-70.9728 0l-308.16 308.1504c-9.792 9.8016-14.688 22.6368-14.688 35.4816s4.9056 25.6896 14.688 35.4816l308.16 308.1504c19.6032 19.6032 51.3792 19.6032 70.9728 0 19.5936-19.5936 19.5936-51.3792 0-70.9728L585.0944 512z" p-id="972"></path></svg>