<svg id="图层_1" data-name="图层 1" xmlns="http://www.w3.org/2000/svg" viewBox="0 0 197.55 197.56"><defs><style>.cls-1{fill:#515151;}</style></defs><title>ThermodynamicChart_nocolor</title><path class="cls-1" d="M152.46,197.85c-25.6-13.23-67.65-4.52-93.25-7.93S17.07,162.86,8.37,138.47C-13.9,76.1,23.42,59.17,53.78,60.54S71.45,30.79,114,7.52s54.05,36.57,49.32,50.17-8,26.57,24.12,60.63-9.39,92.77-35,79.53Zm21.12-78.65C145.46,90.72,145,78.61,149.84,65.81c4.15-11.09,1.83-61.06-34.52-41.76S89.91,74.5,64.14,73.71,3.06,87.15,21.33,137.5c7.14,19.68,23.86,35.41,45.57,37.89s57.06-3.65,78.66,6.8,54.95-35.7,28-63ZM127,155.11c-13.33-5-16.28-21.84-12.31-35.72s-8.17-33.11-13.81-43.9,7.52-35.15,21.48-38.88c22.67-6.06,11.25,29.6,12.2,53.4s34.93,39.3,34.57,53.86S140.33,160.11,127,155.11ZM92.66,135.92C81,146.52,66.05,152.09,51,147s-25.09-29.8-13.39-40.25c23.84-21.31,26.34,1,45.78-8.47s21,27,9.3,37.62Zm0,0" transform="translate(-1.6 -2.2)"/></svg>