<svg id="图层_1" data-name="图层 1" xmlns="http://www.w3.org/2000/svg" xmlns:xlink="http://www.w3.org/1999/xlink" viewBox="0 0 199.78 192.43"><defs><style>.cls-1{fill:none;}.cls-2{clip-path:url(#clip-path);}.cls-3{fill:#1296db;}.cls-4{fill:#d81e06;}.cls-5{fill:#d97b24;}</style><clipPath id="clip-path" transform="translate(0 -3.06)"><rect class="cls-1" x="0.03" y="3.09" width="199.97" height="192.67"/></clipPath></defs><title>ThermodynamicChart_color</title><g class="cls-2"><path class="cls-3" d="M188,116.17C155.47,83,158.77,70.34,163.56,57.11s-6.83-71.54-49.87-48.87-30.22,53-60.92,51.65S-15.68,75,6.84,135.8c8.81,23.75,25.52,46.78,51.41,50.1s68.42-5.15,94.31,7.73,67.88-44.28,35.39-77.46Zm-42.37,62.21c-21.85-10.17-57.6-4.2-79.55-6.62S27.16,154,20,134.85c-18.47-49,17.23-62.91,43.3-62.13s15-29.58,51.75-48.38S154.1,54.22,149.91,65c-4.87,12.47-4.43,24.27,24,52,27.23,26.59-6.49,71.54-28.33,61.36Zm0,0" transform="translate(0 -3.06)"/></g><path class="cls-4" d="M36.38,104.91c-11.82,10.18-1.67,34.26,13.55,39.21s30.32-.49,42.15-10.82,10.25-45.85-9.41-36.63-22.18-12.52-46.29,8.24Zm0,0" transform="translate(0 -3.06)"/><path class="cls-5" d="M122.14,36.57C108,40.21,94.73,63.91,100.42,74.44s18,29.21,14,42.76-1,29.93,12.45,34.8,42.24,3.25,42.6-10.94-34-29.29-35-52.48,10.58-57.91-12.34-52Zm0,0" transform="translate(0 -3.06)"/></svg>