<?xml version="1.0" standalone="no"?><!DOCTYPE svg PUBLIC "-//W3C//DTD SVG 1.1//EN" "http://www.w3.org/Graphics/SVG/1.1/DTD/svg11.dtd"><svg t="1556072018560" class="icon" style="" viewBox="0 0 1024 1024" version="1.1" xmlns="http://www.w3.org/2000/svg" p-id="694" xmlns:xlink="http://www.w3.org/1999/xlink" width="200" height="200"><defs><style type="text/css"></style></defs><path d="M512 12.8C238.93333333 12.8 20.48 234.66666667 20.48 504.32s221.86666667 491.52 491.52 491.52 491.52-221.86666667 491.52-491.52S785.06666667 12.8 512 12.8z m0 935.25333334C269.65333333 948.05333334 71.68 750.08 71.68 507.73333334S269.65333333 67.41333334 512 67.41333334 952.32 265.38666667 952.32 507.73333334 757.76 948.05333334 512 948.05333334z" fill="" p-id="695"></path><path d="M829.44 524.8H532.48V224.42666667c0-13.65333333-10.24-23.89333333-23.89333333-23.89333333-13.65333333 0-23.89333333 10.24-23.89333334 23.89333333v327.68c0 13.65333333 10.24 23.89333333 23.89333334 23.89333333h320.85333333c13.65333333 0 23.89333333-10.24 23.89333333-23.89333333 0-17.06666667-10.24-27.30666667-23.89333333-27.30666667z" fill="" p-id="696"></path></svg>