<svg id="图层_1" data-name="图层 1" xmlns="http://www.w3.org/2000/svg" viewBox="0 0 198 198"><defs><style>.cls-1{fill:#fff;}</style></defs><title>time</title><path class="cls-1" d="M100,1a99,99,0,1,0,99,99A99,99,0,0,0,100,1Zm0,185.82c-47.77,0-86.62-39-86.62-86.82a86.62,86.62,0,0,1,173.24,0c0,47.77-38.85,86.82-86.62,86.82Zm0,0" transform="translate(-1 -1)"/><path class="cls-1" d="M106.19,97.49V38.13a6.19,6.19,0,1,0-12.38,0V100a6.16,6.16,0,0,0,1.9,4.45c.11.12.19.25.3.37l30.63,30.63a6.19,6.19,0,0,0,8.75-8.75Zm0,0" transform="translate(-1 -1)"/></svg>