<?xml version="1.0" standalone="no"?><!DOCTYPE svg PUBLIC "-//W3C//DTD SVG 1.1//EN" "http://www.w3.org/Graphics/SVG/1.1/DTD/svg11.dtd"><svg t="1557292268503" class="icon" style="" viewBox="0 0 1024 1024" version="1.1" xmlns="http://www.w3.org/2000/svg" p-id="14414" xmlns:xlink="http://www.w3.org/1999/xlink" width="200" height="200"><defs><style type="text/css"></style></defs><path d="M511.999488 64.696552c-247.00692 0-447.302936 200.23871-447.302936 447.302936 0 246.948592 200.296016 447.302936 447.302936 447.302936s447.302936-200.354344 447.302936-447.302936C959.303448 264.935263 759.006409 64.696552 511.999488 64.696552zM511.999488 847.477458c-184.948454 0-335.476946-150.497793-335.476946-335.476946s150.528492-335.476946 335.476946-335.476946c184.979153 0 335.476946 150.497793 335.476946 335.476946S696.978641 847.477458 511.999488 847.477458zM567.912995 488.819533 567.912995 288.348532c0-30.868062-24.986092-55.913507-55.913507-55.913507s-55.913507 25.045444-55.913507 55.913507l0 223.88427c0.028653 15.376214 6.319945 29.237934 16.453757 39.372769l111.737985 111.709333c10.892082 10.949387 25.219406 16.424081 39.546731 16.424081 14.327324 0 28.625996-5.474694 39.546731-16.424081 21.811793-21.783141 21.811793-57.194687 0-79.093462L567.912995 488.819533z" p-id="14415"></path></svg>