<svg id="图层_1" data-name="图层 1" xmlns="http://www.w3.org/2000/svg" xmlns:xlink="http://www.w3.org/1999/xlink" viewBox="0 0 361.54 67"><defs><style>.cls-1{fill:#07203e;}.cls-2{fill:#00cafc;}.cls-3{fill:none;}.cls-4{fill:#045b75;stroke:#00beef;}.cls-4,.cls-5{stroke-miterlimit:10;stroke-width:2px;}.cls-5{stroke:#2175ac;fill:url(#未命名的渐变_16);}</style><radialGradient id="未命名的渐变_16" cx="33.75" cy="33.25" r="26" gradientUnits="userSpaceOnUse"><stop offset="0" stop-color="#0e2738"/><stop offset="0.3" stop-color="#0d3849"/><stop offset="0.64" stop-color="#0d4354"/><stop offset="1" stop-color="#0d4758"/></radialGradient></defs><title>yj</title><circle class="cls-1" cx="33.5" cy="33.5" r="32.5"/><path class="cls-2" d="M97.5,94A31.5,31.5,0,1,1,66,125.5,31.53,31.53,0,0,1,97.5,94m0-2A33.5,33.5,0,1,0,131,125.5,33.5,33.5,0,0,0,97.5,92Z" transform="translate(-64 -92)"/><path class="cls-3" d="M123,93H381l38,18v25l-39,22H123S163,129,123,93Z" transform="translate(-64 -92)"/><path class="cls-4" d="M392.54,94.69h-267c35.49,36.06,0,61,0,61h267l32-15V108.77Z" transform="translate(-64 -92)"/><circle class="cls-5" cx="33.75" cy="33.25" r="26"/></svg>